<svg version="1.2" xmlns="http://www.w3.org/2000/svg" viewBox="0 0 13 14" width="13" height="14"><style>.a{fill:#253d35}</style><path fill-rule="evenodd" class="a" d="m12.2 2c0.3 0.3 0.3 0.8 0 1.1-0.3 0.2-0.8 0.2-1.1-0.1-0.6-0.8-1.5-1.3-2.3-1.5-0.9-0.2-1.8 0-2.7 0.4-0.8 0.4-1.5 1.1-2 2q-0.2 0.3-0.3 0.5h4.1c0.4 0 0.8 0.4 0.8 0.8 0 0.4-0.4 0.7-0.8 0.7h-4.6q0 0.6 0 1.1 0 0.5 0 1.1h4.6c0.4 0 0.8 0.3 0.8 0.7 0 0.4-0.4 0.8-0.8 0.8h-4.1q0.1 0.2 0.3 0.5c0.5 0.9 1.2 1.6 2 2 0.9 0.4 1.8 0.6 2.7 0.4 0.8-0.2 1.7-0.7 2.3-1.5 0.3-0.3 0.8-0.3 1.1-0.1 0.3 0.3 0.3 0.8 0 1.1-0.8 1-1.9 1.7-3.1 1.9-1.2 0.3-2.5 0.1-3.6-0.4-1.1-0.6-2.1-1.5-2.7-2.6q-0.4-0.7-0.6-1.3h-1.5c-0.4 0-0.8-0.4-0.8-0.8 0-0.4 0.4-0.7 0.8-0.7h1.1q0-0.6 0-1.1 0-0.5 0-1.1h-1.1c-0.4 0-0.8-0.3-0.8-0.7 0-0.4 0.4-0.8 0.8-0.8h1.5q0.2-0.6 0.6-1.3c0.6-1.1 1.6-2 2.7-2.6 1.1-0.5 2.4-0.7 3.6-0.4 1.2 0.2 2.3 0.9 3.1 1.9z"/></svg>