<?xml version="1.0" standalone="no"?>
<!DOCTYPE svg PUBLIC "-//W3C//DTD SVG 1.0//EN" "http://www.w3.org/TR/2001/REC-SVG-20010904/DTD/svg10.dtd">
<svg xmlns="http://www.w3.org/2000/svg" xmlns:xlink="http://www.w3.org/1999/xlink" id="body_1" width="20" height="19">

<g transform="matrix(0.011883541 0 0 0.011912226 0 0)">
    <path d="M771.063 107.719L682.969 196.188L672 206.25L672.344 330.781L660.5 334.5L650.781 337.875L640.5 341.031L632.719 344.406L623.719 347.937L613.812 351.657L604.969 355.907L595.937 359.781L587.812 363.687L580.906 366.875L572.406 371.469L565.688 375.375L558.781 379.25L550.313 383.844L543.563 387.563L533.843 393.40598L523.219 400.31198L511.75 408.094L502.906 413.906L492.812 421.531L486.437 426.469L478.312 432.844L470.875 438.688L462.906 445.063L455.656 450.90598L450 456.56198L443.094 462.90598L430.531 474.78098L425.062 480.06198L420.625 484.68698L414.625 490.49997L407.375 498.31296L400.469 505.71896L396.063 511.56296L390.563 517.563L385.625 524.125L380.656 530.5L375.875 536.844L370.937 542.875L366.5 548.875L361.906 554.563L358.375 559.843L354.312 566.406L350.062 573.313L346.34402 578.25L342.81302 583.563L337.31302 592.406L334.84302 597.531L331.84302 602.844L327.59302 609.75L324.25003 615.031L322.28104 620.344L318.21902 627.25L314.34402 634.313L310.09402 643L306.90604 651.125L303.37503 659.781L299.81204 667.063L297.00003 673.406L294.34402 680.844L290.28104 690.031L287.09402 699.594L282.50003 713.219L280.00003 721.531L277.18704 730.906L274.71906 739.563L272.59406 748.25L267.09406 772.281L265.68805 779.719L263.37506 788.406L261.781 799L260.719 806.094L259.125 817.219L257.562 829.437L255.96901 848.875L254.71901 862.5L254.188 872.938L254 885.5L254.188 916.094L254.531 926.187L255.59401 940.687L256.5 952.531L257.375 961.031L258.25 970.063L259.125 977.313L260.719 986.343L261.969 995L263.219 1002.781L264.813 1010.563L266.219 1017.281L268.344 1026.656L270.281 1034.813L272.062 1043.125L274.875 1052.125L277.188 1061.344L279.468 1069.125L281.594 1075.844L283.906 1083.625L286.562 1090.875L289.21902 1098.656L292.21902 1106.25L294.87503 1112.969L297.34402 1118.812L300.71902 1127.125L304.06302 1135.281L307.781 1142.875L310.969 1150.469L314.156 1156.687L317.344 1162.344L321.063 1170.469L324.40598 1176.656L327.78098 1183.031L331.49997 1189.406L333.78098 1193.469L336.09396 1197.344L339.43796 1202.844L342.46796 1207.969L345.28094 1212.406L348.65594 1217L351.46893 1221.938L355.90594 1228.656L359.78094 1234.313L364.03094 1240L367.03094 1244.594L370.40594 1249L374.65594 1254.5L378.18695 1259.094L383.12494 1265.094L389.34393 1272.531L394.46893 1279.25L400.46893 1285.813L404.90594 1291.281L409.65594 1296.063L415.34393 1302.063L420.46893 1307.75L425.59393 1312.875L429.46893 1316.594L434.24994 1321L439.21893 1325.969L443.46893 1329.844L448.06293 1334.094L451.7809 1337.625L456.7189 1341.875L461.3129 1346.125L465.40588 1348.938L469.09387 1352.5L472.99988 1355.5L476.18787 1357.781L479.71786 1360.625L483.96786 1364L488.03085 1367.156L492.46884 1370.344L497.21884 1373.875L501.46884 1377.063L504.46884 1379.031L506.96884 1380.969L509.78085 1382.906L512.8118 1385.031L515.4368 1386.813L517.7498 1388.031L352.187 1388.031L254.18701 1486.031L1239.094 1486.031L1336.75 1388.031L823.406 1387.875L812.281 1387.687L798.813 1386.281L779.375 1384.688L761.5 1381.156L747.719 1378.656L733.375 1375.313L721 1372.656L707.375 1369.281L698.344 1366.625L684.031 1361.5L671.813 1357.094L661.375 1353.375L651.656 1349.312L641.563 1344.188L632.375 1339.75L620.531 1334.281L608.844 1327.906L598.406 1321.719L588.344 1315.687L580.719 1310.75L570.812 1304.906L561.782 1298.188L554 1293.218L546.406 1287.562L537.75 1280.312L528.906 1273.25L519.875 1265.281L511.219 1257.844L502 1248.844L493.531 1240.531L487.687 1234.844L480.781 1226.531L475.312 1220.719L469.812 1214.875L462.906 1206.375L455.312 1197C 455.312 1197 448.59402 1187.989 448.59402 1187.281C 448.59402 1186.574 442.03104 1178.969 442.03104 1178.969L442.03104 1178.969L434.62503 1167.812L428.59402 1158.969L422.59402 1149.594L416.93802 1139.875L412.156 1131.719L408.094 1123.594L402.063 1112.437L397.469 1101.844L393.031 1091.562L388.094 1080.969L384.719 1073L381.906 1065.75L378.906 1056.562L374.812 1043.812L370.59402 1030.375L366.34402 1015.344L363.68802 1002.437L360.84402 988.281L358.18802 976.25L356.43802 961.906L355 948.47L353.594 933.251L352.906 924.407L352.187 914.157L352.187 904.782L352.375 895.93896L352.906 886.751L353.25 872.063L353.938 861.095L354.468 849.595L355.375 841.626L356.781 830.657L358.375 820.595L359.625 810.313L361.375 801.657L363.688 790.876L365.438 782.032L367.03098 775.31396L369.34396 766.47L371.81296 758.845L374.65594 748.251L377.46893 740.626L381.18793 730.032L384.71793 720.126L388.2809 711.438L392.1559 700.47L397.1249 689.876L400.6559 683.501L404.7189 674.845L409.3129 665.626L413.03088 658.72L418.15588 649.72L423.99988 640.688L427.90588 633.626L432.49988 626.907L439.21887 617.157L444.87488 609.032L449.99988 601.43896L455.31287 594.345L459.90585 587.97L464.15585 583.188L469.28085 577.532L473.34384 572.407L477.24985 568.157L482.03085 563.407L486.09384 558.43896L492.09384 552.969L497.40585 547.469L508.03085 537.219L511.74985 533.31396L516.68787 528.907L521.6559 524.47L526.06287 520.407L531.3749 515.81396L537.56287 511.03195L543.4059 506.62595L549.25 502L555.25 498.312L562.5 492.812L569.406 487.875L576.844 483.094L582.125 479.188L589.219 475.125L595.594 471.219L600.344 468.063L606.375 465.40598L610.969 462.56198L617.156 459.37497L624.063 455.84396L630.969 452.65598L635.031 450.18698L641.563 447.719L647.219 445.219L653.781 442.219L659.094 439.938L664.375 437.813L669.531 436.03098L672.344 434.78098L672.344 895.937L770.875 797.781L771.063 409.31302L772.281 408.781L776.531 408.094L781.5 407.563L788.219 406.5L794.75 405.969L798.906 405.813L799 405.875L800.688 406.063L808.906 405.15598L817.75 404.62497L828.438 404.28098L861.438 404.09396L873.468 404.71896L883.718 405.43796L891.438 406.12497L898.781 406.93796L906.719 407.90594L912.656 408.78094L917.969 409.49994L918.125 896.12494L1016.938 797.93695L1016.938 435.15695L1018.438 435.59396L1021.781 436.99997L1026.469 438.87497L1032.75 441.15598L1037.094 443.28098L1043.469 446.03098L1050.531 449.21896L1057.094 452.40598L1063.531 455.65598L1070.625 459.12497L1078.469 463.28098L1084.062 466.18698L1089 468.844L1093.156 471.688L1098.031 474.5L1102 476.625L1107.125 480.063L1111.563 483L1116.969 486.281L1121.656 489.437L1126.344 492.812L1131.094 496.25L1135.781 499.531L1141.281 503.687L1146.313 507.59402L1150.219 510.68802L1154.375 514.031L1158.875 517.563L1163.75 521.563L1169.594 527.031L1174.625 531.375L1179.406 535.969L1184.625 540.562L1189.75 545.875L1193.625 549.063L1197.25 552.969L1203.094 559.156L1208.156 564.531L1211.594 568.531L1215.219 572.594L1220.625 578.687L1226.281 585.594L1231.063 591.344L1233.781 595.594L1237.25 600.625L1241.563 606.125L1245.031 610.813L1248.375 615.5L1251.656 620.25L1255.563 626L1258.906 631.406L1262 636L1264.75 640.063L1267.563 644.5L1270.313 648.906L1272.875 653.875L1275.188 658.375L1278.094 663.781L1280.656 667.938L1282.625 671.906L1284.906 676.781L1286.938 680.313L1288.906 684.375L1292 690.938L1295.094 698.094L1296.844 701.812L1298.531 705.782L1300.219 709.687L1301.719 713.657L1303.5 718.625L1305 722.594L1307.125 727L1308.531 730.625L1309.688 734.25L1311.281 739.125L1312.344 742.594L1313.844 747.344L1315.25 752.5L1316.844 757.688L1318.687 763.094L1320.469 770.187L1322.062 776L1324.188 785.563L1325.344 790.5L1326.562 796L1327.969 803.438L1328.344 804.844L1329.312 810.687L1330.625 817.594L1331.531 825.094L1332.5 832.531L1333.656 842L1334.625 850.656L1335.313 860.906L1335.937 870.031L1336.657 881.969L1337.094 895.406L1427.937 804.563L1428.094 802.906L1427.562 799L1426.782 794.156L1425.906 789.094L1425.188 785.125L1424.125 779.031L1422.781 773.719L1421.906 768.75L1419.781 760.281L1418.719 755.75L1417.312 750.281L1415.625 744.094L1414.219 738.937L1412.812 733.657L1411.469 729.407L1410.062 724.437L1408.282 718.875L1406.438 713.031L1403.968 705.688L1402 699.875L1400.156 694.187L1397.938 688.719L1396.094 684.031L1393.781 677.219L1391.5 672L1389.437 667.406L1387.063 661.75L1384.75 656.531L1381.937 649.875L1379.625 644.656L1377.062 639.906L1374.25 633.969L1371.937 629.469L1369.031 623.437L1366.531 618.937L1363.969 614.157L1361.062 609.031L1357.688 603.375L1354.594 597.625L1351.875 593.094L1349.031 588.156L1346.281 583.906L1343.469 578.875L1340.906 574.875L1337.719 570.375L1335.5 566.844L1333.187 563.844L1329.75 558.531L1326.219 553.563L1323.125 549.25L1320.281 545.25L1316.938 540.75L1313.468 536.25L1309.938 531.719L1307.906 528.719L1304.719 525.094L1302.687 522.625L1299.25 518.375L1296.062 514.562L1292.532 510.406L1287.125 504.031L1282.625 498.906L1278.469 494.75L1274.469 490.344L1270.062 485.906L1263.594 479.281L1258.031 474.062L1253.438 469.562L1247.844 464.062L1242.812 459.21902L1238.375 455.50003L1232.562 450.00003L1227.688 446.03104L1223.625 442.31204L1218.219 438.15604L1213.625 434.43704L1208.312 430.09406L1203.188 426.31305L1197.531 422.25006L1192.5 418.68707L1186.75 414.18707L1181.25 410.28107L1176.844 407.03107L1172.219 404.03107L1167.375 400.90607L1161.875 397.46906L1156.062 393.75006L1150.75 390.21906L1146.156 387.46906L1140.656 384.46906L1135.781 381.62506L1130.313 378.71906L1124.563 375.37506L1119.625 372.78107L1113.875 369.78107L1108.281 367.03107L1103.344 364.56207L1096.437 361.31207L1090.25 358.37506L1083.875 355.37506L1076 351.93707L1070.094 349.3441L1063.281 346.7191L1057.438 344.4061L1052.031 342.4691L1046.188 340.3441L1038.344 337.3441L1032.5 335.4691L1025.875 333.18808L1020.469 331.5941L1017.094 330.9691L1016.937 108.00009L917.969 206.4381L918.03 310L910.093 308.75L899.56104 307.531L891.155 306.625L877 305.562L863.844 305.125L856.062 304.875L837.125 305.063L824.75 305.219L810.312 305.75L800.312 306.281L797.687 306.906L797.657 306.937L789.094 307.625L780.25 308.313L774.062 309.563L771.219 310.78098L771.062 107.71898L771.063 107.719z" stroke="#000000" stroke-width="1" fill="#232020" fill-rule="nonzero" />
</g>
</svg>