<svg width="10" height="16" viewBox="0 0 10 16" fill="none" xmlns="http://www.w3.org/2000/svg">
<path fill-rule="evenodd" clip-rule="evenodd" d="M5.7503 0.799988C5.7503 0.385774 5.41451 0.0499878 5.0003 0.0499878C4.58608 0.0499878 4.2503 0.385774 4.2503 0.799988V2.46612C3.5262 2.51319 2.77529 2.67161 2.1627 3.05317C1.51644 3.4557 1.05795 4.08893 0.953931 4.96471C0.871266 5.66068 0.947878 6.27522 1.1934 6.80521C1.43984 7.33716 1.82858 7.72373 2.26977 8.00777C3.1063 8.54636 4.22468 8.76589 5.13983 8.94552L5.14816 8.94716L5.22991 8.96319C5.68386 9.0522 6.09974 9.13375 6.4786 9.23614C6.88155 9.34505 7.19164 9.4649 7.41615 9.60631C7.62976 9.74086 7.74146 9.87873 7.79867 10.0309C7.85856 10.1902 7.89196 10.4544 7.78365 10.8968C7.702 11.2303 7.47426 11.4935 7.04506 11.6966C6.59931 11.9076 5.9874 12.0239 5.28685 12.0461C3.86752 12.091 2.37607 11.7453 1.74996 11.4153C1.38352 11.2222 0.92991 11.3627 0.736796 11.7291C0.543681 12.0956 0.684191 12.5492 1.05063 12.7423C1.76225 13.1173 2.98756 13.4251 4.2503 13.5198V15.2C4.2503 15.6142 4.58608 15.95 5.0003 15.95C5.41451 15.95 5.7503 15.6142 5.7503 15.2V13.5223C6.42665 13.468 7.10384 13.3284 7.68682 13.0524C8.40615 12.7119 9.02388 12.1387 9.24062 11.2535C9.39732 10.6135 9.39903 10.0253 9.20275 9.50313C9.0038 8.97386 8.63486 8.60119 8.21558 8.3371C7.80721 8.07988 7.33217 7.91302 6.86996 7.78809C6.43788 7.67132 5.97243 7.58013 5.53302 7.49405L5.43708 7.47525C4.4478 7.28106 3.63328 7.10164 3.08177 6.74657C2.82767 6.58297 2.65777 6.39772 2.55445 6.17468C2.45021 5.94967 2.38592 5.62604 2.44346 5.14163C2.49024 4.74781 2.66986 4.50446 2.95573 4.32639C3.27436 4.12793 3.74831 4.00165 4.35016 3.96279C5.55179 3.88521 6.97971 4.17244 7.87518 4.47362C8.26778 4.60567 8.69309 4.39445 8.82514 4.00184C8.95719 3.60924 8.74596 3.18393 8.35336 3.05188C7.67773 2.82464 6.73343 2.59977 5.7503 2.50149V0.799988Z" fill="#253D35"/>
</svg>
